<svg xmlns="http://www.w3.org/2000/svg" xml:space="preserve" viewBox="0 0 1024 1024"><path d="M544 256c-141.385 0-256 114.615-256 255.999C288 653.038 402.962 768 544.001 768 685.385 768 800 653.385 800 512v271.526c0 9.497-4.189 18.537-11.509 24.588-65.846 54.429-150.148 87.323-242.119 87.879C334.184 897.276 160.397 724.925 160 512.733 159.604 300.319 331.678 128 544 128h128v128z" style="fill:#4cc9f0;fill-rule:nonzero;stroke:#270a7f;stroke-width:32px"/><path d="M800 510.014c0 141.322-115.626 258.497-256.947 257.984C402.104 767.488 288 653.069 288 512h99.211c15.299 0 28.327 10.855 31.399 25.842 11.982 58.447 63.802 102.372 125.843 102.157C615.196 639.755 672 581.354 672 510.611V128h128z" style="fill:#f72585;fill-rule:nonzero;stroke:#270a7f;stroke-width:32px"/></svg>